#!OML:ASF F:\VICON\USERDATA\INSTALL\rory3\rory3.ASF
:FULLY-SPECIFIED
:DEGREES
382
root -0.842578 16.2969 -6.16007 -162.744 -0.696259 -179.258
lowerback 3.76478 -0.95144 1.7618
upperback -0.341192 -1.18472 0.358597
thorax -2.48913 -0.614379 -0.549678
lowerneck -22.9159 0.887112 0.312482
upperneck 23.6251 1.64323 -0.392666
head 11.5114 0.857205 0.100734
rclavicle 1.05107e-014 -6.68413e-015
rhumerus -384.88 -42.5169 321.081
rradius 12.2732
rwrist 5.72095
rhand -12.6653 368.63
rfingers 7.12502
rthumb 13.4158 -20.9178
lclavicle 1.05107e-014 -6.68413e-015
lhumerus -27.8549 14.7655 51.1812
lradius 14.364
lwrist -43.3764
lhand -10.2131 21.5155
lfingers 7.12502
lthumb 15.7784 50.8924
rfemur 111.678 -190.253 -180.418
rtibia 36.6905
rfoot -41.0334 -26.0421
rtoes 58.2962
lfemur -13.9867 -1.32099 -28.4667
ltibia 35.3711
lfoot -35.6071 21.7729
ltoes -20.3622
383
root -0.82286 16.1616 -6.26594 -162.909 -1.37944 -180.504
lowerback 3.69028 -1.29296 0.738257
upperback 0.257222 -1.70407 -0.0432298
thorax -1.82656 -0.861031 -0.368951
lowerneck -23.7374 1.0331 0.791347
upperneck 22.8605 1.57048 -0.437088
head 11.381 0.824981 -0.0125858
rclavicle -7.95139e-015 2.48481e-015
rhumerus -382.48 -39.1597 315.063
rradius 12.7051
rwrist 2.68212
rhand -13.0263 369.053
rfingers 7.12502
rthumb 13.0678 -20.5176
lclavicle -7.95139e-015 2.48481e-015
lhumerus -26.0166 16.1789 54.3237
lradius 13.7534
lwrist -45.8117
lhand -10.0706 20.9967
lfingers 7.12502
lthumb 15.9157 50.3627
rfemur 110.82 -190.717 -183.601
rtibia 36.8318
rfoot -46.5005 -19.7913
rtoes 59.7775
lfemur -12.7308 -1.59613 -29.5066
ltibia 34.8331
lfoot -37.4927 20.0614
ltoes -17.6391
384
root -0.792267 16.0352 -6.3869 -162.931 -1.66672 -181.879
lowerback 4.56977 -1.51674 -0.645819
upperback -0.185976 -2.08207 -0.472213
thorax -2.74668 -1.03652 0.0197125
lowerneck -23.7226 1.12868 1.26701
upperneck 22.7994 1.52801 -0.451805
head 11.3591 0.845337 -0.104307
rclavicle -1.05853e-014 6.75868e-015
rhumerus -381.566 -31.5239 309.252
rradius 14.2051
rwrist -3.92137
rhand -13.3756 368.598
rfingers 7.12502
rthumb 12.7311 -20.9939
lclavicle -1.05853e-014 6.75868e-015
lhumerus -25.4535 15.7441 57.4326
lradius 13.4549
lwrist -47.1107
lhand -10.3523 20.4295
lfingers 7.12502
lthumb 15.6444 49.817
rfemur 110.037 -191.198 -186.84
rtibia 37.1387
rfoot -50.7379 -13.3897
rtoes 60.8121
lfemur -11.8025 -1.79791 -30.7414
ltibia 34.4563
lfoot -39.1559 19.2032
ltoes -17.5983
385
root -0.733712 15.9168 -6.51165 -162.841 -1.75772 -182.74
lowerback 4.4774 -1.56437 -2.10164
upperback 0.0679217 -2.23096 -0.546854
thorax -2.38111 -1.10113 0.759163
lowerneck -24.7203 1.14592 1.32634
upperneck 22.6065 1.44983 -0.423247
head 11.4726 0.796469 -0.11544
rclavicle 1.6201e-014 6.55989e-015
rhumerus -380.113 -25.086 303.816
rradius 16.0915
rwrist -10.0644
rhand -13.8523 367.701
rfingers 7.12502
rthumb 12.2715 -21.9194
lclavicle 1.6201e-014 6.55989e-015
lhumerus -23.549 16.4873 60.993
lradius 13.0895
lwrist -48.8874
lhand -10.6649 19.8156
lfingers 7.12502
lthumb 15.3432 49.2263
rfemur 108.989 -191.211 -188.24
rtibia 37.474
rfoot -52.1183 -14.4193
rtoes 59.9506
lfemur -11.2543 -1.59285 -31.3741
ltibia 34.2034
lfoot -40.0523 19.3626
ltoes -19.0572
386
root -0.699181 15.7893 -6.63561 -162.61 -2.18439 -184.019
lowerback 4.56486 -1.71785 -3.46681
upperback 0.138498 -2.52623 -0.702032
thorax -2.29878 -1.2417 1.38176
lowerneck -25.5348 1.05686 1.14149
upperneck 22.4108 1.33872 -0.420343
head 11.5472 0.712728 -0.102158
rclavicle 3.10601e-015 2.48481e-015
rhumerus -379.004 -21.0688 299.771
rradius 17.4238
rwrist -13.6893
rhand -14.1211 367.485
rfingers 7.12502
rthumb 12.0123 -22.1508
lclavicle 3.10601e-015 2.48481e-015
lhumerus -21.5022 16.2599 65.0408
lradius 12.8875
lwrist -49.6182
lhand -11.5444 19.4477
lfingers 7.12502
lthumb 14.496 48.9214
rfemur 108.759 -188.08 -186.718
rtibia 37.8632
rfoot -48.8318 -17.5659
rtoes 59.0904
lfemur -10.7514 -1.68958 -32.46
ltibia 34.0411
lfoot -40.8426 19.4731
ltoes -20.1969
387
root -0.672937 15.6957 -6.76785 -162.356 -2.80363 -184.239
lowerback 4.51516 -1.83648 -3.61502
upperback 0.168311 -2.68248 -0.55275
thorax -2.21872 -1.31796 1.62424
lowerneck -26.1617 0.969239 0.955506
upperneck 22.1479 1.2886 -0.580383
head 11.5622 0.637316 -0.140136
rclavicle -1.70334e-014 -4.47266e-016
rhumerus -377.825 -18.9307 296.63
rradius 17.8321
rwrist -15.6024
rhand -13.7558 368.446
rfingers 7.12502
rthumb 12.3646 -21.1684
lclavicle -1.70334e-014 -4.47266e-016
lhumerus -19.4517 14.8502 69.4457
lradius 13.1009
lwrist -49.5079
lhand -11.6302 19.1567
lfingers 7.12502
lthumb 14.4133 48.6362
rfemur 108.54 -184.873 -183.582
rtibia 38.2041
rfoot -41.5795 -25.5456
rtoes 56.6403
lfemur -10.3802 -1.6813 -32.3869
ltibia 33.9296
lfoot -41.5778 19.5073
ltoes -20.9066
388
root -0.646974 15.6082 -6.91832 -162.252 -3.48431 -183.878
lowerback 4.55893 -1.88082 -3.0663
upperback 0.0390873 -2.7009 -0.327981
thorax -2.38909 -1.32281 1.55467
lowerneck -25.8806 0.843867 0.854223
upperneck 21.5112 1.14775 -0.656497
head 11.2677 0.547928 -0.179439
rclavicle 2.77328e-015 -2.60827e-015
rhumerus -377.234 -17.1065 293.934
rradius 18.3167
rwrist -17.0021
rhand -12.9917 369.272
rfingers 7.12502
rthumb 13.1012 -20.2967
lclavicle 2.77328e-015 -2.60827e-015
lhumerus -17.5436 13.9571 73.4562
lradius 13.2024
lwrist -50.5082
lhand -11.3244 18.4708
lfingers 7.12502
lthumb 14.708 47.929
rfemur 108.398 -181.587 -179.251
rtibia 38.6334
rfoot -30.2046 -32.5454
rtoes 53.3767
lfemur -9.88426 -1.44765 -31.7029
ltibia 33.8725
lfoot -41.5021 20.9168
ltoes -24.5853
389
root -0.595756 15.5073 -7.10343 -161.768 -3.46412 -184.375
lowerback 3.89124 -1.78357 -3.95193
upperback -0.130922 -2.58659 -0.252903
thorax -2.15352 -1.25697 2.09745
lowerneck -26.4617 0.642933 -0.308488
upperneck 21.761 1.08388 0.209558
head 11.455 0.533395 0.323879
rclavicle 2.7159e-014 -1.16289e-014
rhumerus -376.445 -15.8944 291.47
rradius 18.6034
rwrist -17.5735
rhand -12.0541 370.219
rfingers 7.12502
rthumb 14.0048 -19.2892
lclavicle 2.7159e-014 -1.16289e-014
lhumerus -15.5521 12.6654 77.5354
lradius 13.2129
lwrist -50.931
lhand -11.5656 18.2656
lfingers 7.12502
lthumb 14.4756 47.7406
rfemur 107.397 -179.595 -177.264
rtibia 39.3011
rfoot -17.6293 -37.1783
rtoes 47.8222
lfemur -9.62082 -1.34116 -31.9834
ltibia 33.806
lfoot -42.1657 21.2386
ltoes -25.7174
390
root -0.565016 15.4257 -7.28701 -161.467 -3.94565 -184.194
lowerback 2.9762 -1.78412 -3.74738
upperback -0.0106357 -2.52405 -0.0511475
thorax -1.51984 -1.2389 2.14993
lowerneck -25.096 0.381148 -0.0407596
upperneck 19.83 0.704626 -0.351748
head 10.4934 0.300126 -0.00233728
rclavicle -2.80783e-014 -1.93815e-014
rhumerus -375.174 -14.6483 288.867
rradius 18.9969
rwrist -18.9432
rhand -11.7738 371.67
rfingers 7.12502
rthumb 14.275 -17.8197
lclavicle -2.80783e-014 -1.93815e-014
lhumerus -13.2105 10.0811 81.722
lradius 13.4111
lwrist -49.483
lhand -11.5246 18.3487
lfingers 7.12502
lthumb 14.5151 47.8209
rfemur 106.599 -176.683 -173.039
rtibia 40.2003
rfoot 2.94986 -37.1437
rtoes 32.0719
lfemur -9.18286 -1.46148 -31.427
ltibia 33.8866
lfoot -42.896 20.6455
ltoes -25.4334
391
root -0.549405 15.377 -7.47039 -161.238 -4.6387 -183.794
lowerback 2.90731 -1.90368 -2.98925
upperback -0.554933 -2.65295 0.0927051
thorax -2.05936 -1.28977 1.88916
lowerneck -24.883 0.234989 -0.347919
upperneck 20.1846 0.504004 0.159055
head 10.5825 0.256441 0.20156
rclavicle -1.1281e-014 -1.16289e-014
rhumerus -374.988 -11.9428 286.187
rradius 20.2954
rwrist -21.3753
rhand -11.7645 371.418
rfingers 7.12502
rthumb 14.2839 -18.071
lclavicle -1.1281e-014 -1.16289e-014
lhumerus -12.0318 6.94584 85.3524
lradius 13.8468
lwrist -46.6337
lhand -11.785 18.0919
lfingers 7.12502
lthumb 14.2642 47.582
rfemur 106.097 -174.178 -169.275
rtibia 41.3131
rfoot 11.2865 -33.094
rtoes 24.7893
lfemur -8.79676 -1.94318 -30.6708
ltibia 34.225
lfoot -43.2568 20.6171
ltoes -25.9598
